<svg xmlns="http://www.w3.org/2000/svg" width="644.1658935546875" height="665.5165405273438" viewBox="-225.3426055908203 -221.64730834960938 644.1658935546875 665.5165405273438"><title>Neo4j Graph Visualization</title><desc>Created using Neo4j (http://www.neo4j.com/)</desc><g class="layer relationships"><g class="relationship" transform="translate(169.02972794354255 407.3692281807188) rotate(324.39631808757383)"><path class="outline" fill="#FFD86E" stroke="none" d="M 30.357313173984636,-12.275322270988196 L 32.4278655348048,-4.547915660675651 A 85.93586663741134 85.93586663741134 0 0 1 47.3312884256004,-7.162207286260497 L 46.64813561972299,-15.132985306242091 A 93.93586663741134 93.93586663741134 0 0 0 30.357313173984636,-12.275322270988196 Z M 57.55186164803165,-15.43188346495505 L 57.30640420790821,-7.43564993628118 A 85.93586663741134 85.93586663741134 0 0 1 72.33066654695122,-5.64175034792431 L 71.71412669833909,-2.7057873687514933 L 86.85388024790721,-6.67918169329811 L 74.59131265852905,-16.40694793822464 L 73.97477280991691,-13.470984959051824 A 93.93586663741134 93.93586663741134 0 0 0 57.55186164803165,-15.43188346495505"/><text text-anchor="middle" pointer-events="none" font-size="8px" fill="#000000" x="52.20526520956267" y="-8.442337457087518" font-family="sans-serif">0</text></g><g class="relationship" transform="translate(265.50794379581555 338.2882316589726) rotate(245.2137598521316)"><path class="outline" fill="#FFD86E" stroke="none" d="M 30.357313173984636,-12.275322270988196 L 32.4278655348048,-4.547915660675651 A 90.11353310336315 90.11353310336315 0 0 1 46.203613232952534,-7.1112710409667415 L 45.35602903007566,-15.066244392212724 A 98.11353310336315 98.11353310336315 0 0 0 30.357313173984636,-12.275322270988196 Z M 60.86581210373095,-15.485045681384094 L 60.44875665227467,-7.495924030638591 A 90.11353310336315 90.11353310336315 0 0 1 74.34276299010922,-5.679718278829912 L 73.72381714835583,-2.7442615775692394 L 88.86682205166355,-6.70524661899501 L 76.61223107653831,-16.443059516785713 L 75.99328523478492,-13.50760281552504 A 98.11353310336315 98.11353310336315 0 0 0 60.86581210373095,-15.485045681384094"/><text text-anchor="middle" pointer-events="none" font-size="8px" fill="#000000" x="53.21059928470824" y="-8.584168123550498" transform="rotate(180 53.21059928470824 -11.584168123550498)" font-family="sans-serif">20</text></g><g class="relationship" transform="translate(214.91997428871576 228.7367471844695) rotate(347.86363629629705)"><path class="outline" fill="#FFD86E" stroke="none" d="M 32.5 4 L 46.34091413943508 4 L 46.34091413943508 -4 L 32.5 -4 Z M 61.23935163943508 4 L 75.08026577887016 4 L 75.08026577887016 7 L 89.08026577887016 0 L 75.08026577887016 -7 L 75.08026577887016 -4 L 61.23935163943508 -4 Z"/><text text-anchor="middle" pointer-events="none" font-size="8px" fill="#000000" x="53.79013288943508" y="3" font-family="sans-serif">21</text></g><g class="relationship" transform="translate(333.78292136955156 203.17582313780923) rotate(294.2254516273238)"><path class="outline" fill="#FFD86E" stroke="none" d="M 32.5 4 L 44.698962341358424 4 L 44.698962341358424 -4 L 32.5 -4 Z M 59.597399841358424 4 L 71.79636218271685 4 L 71.79636218271685 7 L 85.79636218271685 0 L 71.79636218271685 -7 L 71.79636218271685 -4 L 59.597399841358424 -4 Z"/><text text-anchor="middle" pointer-events="none" font-size="8px" fill="#000000" x="52.148181091358424" y="3" font-family="sans-serif">40</text></g><g class="relationship" transform="translate(382.32325124608036 95.2968832044641) rotate(212.28904267482693)"><path class="outline" fill="#FFD86E" stroke="none" d="M 30.357313173984636,-12.275322270988196 L 32.4278655348048,-4.547915660675651 A 90.7278894510633 90.7278894510633 0 0 1 46.3491946552611,-7.1342366607959775 L 45.50616597693244,-15.089694073636267 A 98.7278894510633 98.7278894510633 0 0 0 30.357313173984636,-12.275322270988196 Z M 61.01208236778471,-15.5074706132297 L 60.59865421495317,-7.518160432591685 A 90.7278894510633 90.7278894510633 0 0 1 74.63905185531532,-5.685213380371858 L 74.01975780840415,-2.7498301203084647 L 89.16323246482602,-6.709018841537615 L 76.90979669398958,-16.448285333937633 L 76.29050264707841,-13.512902073874239 A 98.7278894510633 98.7278894510633 0 0 0 61.01208236778471,-15.5074706132297"/><text text-anchor="middle" pointer-events="none" font-size="8px" fill="#000000" x="53.358639719140506" y="-8.605029446728167" transform="rotate(180 53.358639719140506 -11.605029446728167)" font-family="sans-serif">22</text></g><g class="relationship" transform="translate(280.0653006343356 30.679458364836304) rotate(296.514080318445)"><path class="outline" fill="#FFD86E" stroke="none" d="M 26.14582562299426,-19.71410161513775 L 30.14582562299426,-12.785898384862241 A 50.08164586655985 50.08164586655985 0 0 1 45.68777217026444,-18.586500559593354 L 44.170429643412334,-26.441287103873606 A 58.08164586655985 58.08164586655985 0 0 0 26.14582562299426,-19.71410161513775 Z M 60.09777594644851,-27.28756259357983 L 59.421331287637365,-19.316212480608634 A 50.08164586655985 50.08164586655985 0 0 1 75.4904469754416,-15.195216353497786 L 74.27420509274074,-12.452816732223694 L 89.90996771832182,-13.175953729259254 L 79.95000054534472,-25.250681631502786 L 78.73375866264387,-22.508282010228697 A 58.08164586655985 58.08164586655985 0 0 0 60.09777594644851,-27.28756259357983"/><text text-anchor="middle" pointer-events="none" font-size="8px" fill="#000000" x="52.31714966968373" y="-20.419387151963768" font-family="sans-serif">23</text></g><g class="relationship" transform="translate(333.4654753899005 -76.3588410358838) rotate(205.81287509490824)"><path class="outline" fill="#FFD86E" stroke="none" d="M 30.357313173984636,-12.275322270988196 L 32.4278655348048,-4.547915660675651 A 84.1996950133552 84.1996950133552 0 0 1 44.806520939762216,-6.889045784818222 L 43.91209211744123,-14.838888367020814 A 92.1996950133552 92.1996950133552 0 0 0 30.357313173984636,-12.275322270988196 Z M 59.46177344377829,-15.267846352690455 L 59.00698467277993,-7.280783865532001 A 84.1996950133552 84.1996950133552 0 0 1 71.49588196776416,-5.625657209295417 L 70.88036197916067,-2.6894802487513907 L 86.0187344351076,-6.668133209871157 L 73.75278859264363,-16.391639397956848 L 73.13726860404013,-13.455462437412821 A 92.1996950133552 92.1996950133552 0 0 0 59.46177344377829,-15.267846352690455"/><text text-anchor="middle" pointer-events="none" font-size="8px" fill="#000000" x="51.788173288917434" y="-8.383409708774195" transform="rotate(180 51.788173288917434 -11.383409708774195)" font-family="sans-serif">41</text></g><g class="relationship" transform="translate(227.39485547895742 -127.66479098190965) rotate(208.25299193189085)"><path class="outline" fill="#FFD86E" stroke="none" d="M 30.357313173984636,-12.275322270988196 L 32.4278655348048,-4.547915660675651 A 80.77955695642311 80.77955695642311 0 0 1 44.00232338402406,-6.759468928024447 L 43.0780469658128,-14.705896622450325 A 88.77955695642311 88.77955695642311 0 0 0 30.357313173984636,-12.275322270988196 Z M 58.65326755224245,-15.14098509669104 L 58.17404783955279,-7.15535121659299 A 80.77955695642311 80.77955695642311 0 0 1 69.85391725915437,-5.5933996492484015 L 69.24044160201522,-2.656794871942184 L 84.37604042943558,-6.645986285674029 L 72.1033280019979,-16.3609504993712 L 71.48985234485875,-13.424345722064981 A 88.77955695642311 88.77955695642311 0 0 0 58.65326755224245,-15.14098509669104"/><text text-anchor="middle" pointer-events="none" font-size="8px" fill="#000000" x="50.967788826124476" y="-8.267353004917041" transform="rotate(180 50.967788826124476 -11.267353004917041)" font-family="sans-serif">24</text></g><g class="relationship" transform="translate(125.04768538802244 -182.6647968596211) rotate(180.40297522143544)"><path class="outline" fill="#FFD86E" stroke="none" d="M 26.14582562299426,-19.71410161513775 L 30.14582562299426,-12.785898384862241 A 47.764245811909774 47.764245811909774 0 0 1 44.63845981611083,-18.253109218646905 L 43.06582094312403,-26.097011753429626 A 55.764245811909774 55.764245811909774 0 0 0 26.14582562299426,-19.71410161513775 Z M 59.03689189696934,-26.959677754877703 L 58.31830337558377,-18.992016207288415 A 47.764245811909774 47.764245811909774 0 0 1 73.31551465645092,-15.11767833436415 L 72.10409181497316,-12.373146552958444 L 87.73856009164787,-13.123747449342268 L 77.75739840853599,-25.18096153285174 L 76.54597556705824,-22.436429751446035 A 55.764245811909774 55.764245811909774 0 0 0 59.03689189696934,-26.959677754877703"/><text text-anchor="middle" pointer-events="none" font-size="8px" fill="#000000" x="51.23600956255983" y="-20.109746552789936" transform="rotate(180 51.23600956255983 -23.109746552789936)" font-family="sans-serif">42</text></g><g class="relationship" transform="translate(7.57960309339812 -183.49099221676306) rotate(491.96326475275816)"><path class="outline" fill="#FFD86E" stroke="none" d="M 26.14582562299426,-19.71410161513775 L 30.14582562299426,-12.785898384862241 A 47.2748139515473 47.2748139515473 0 0 1 44.41754038589706,-18.18250999695794 L 42.83264704755925,-26.023945650337524 A 55.2748139515473 55.2748139515473 0 0 0 26.14582562299426,-19.71410161513775 Z M 58.813430294700524,-26.89016401925508 L 58.08540284981874,-18.92335938756623 A 47.2748139515473 47.2748139515473 0 0 1 72.85682070624105,-15.100994455167443 L 71.64643488894168,-12.356005170437804 L 87.2806184580452,-13.112513020743215 L 77.29490203633875,-25.16595516584278 L 76.08451621903939,-22.420965881113144 A 55.2748139515473 55.2748139515473 0 0 0 58.813430294700524,-26.89016401925508"/><text text-anchor="middle" pointer-events="none" font-size="8px" fill="#000000" x="51.00801930005321" y="-20.044364176391596" transform="rotate(180 51.00801930005321 -23.044364176391596)" font-family="sans-serif">25</text></g><g class="relationship" transform="translate(-70.66495236094919 -96.47948480648246) rotate(432.6580100762106)"><path class="outline" fill="#FFD86E" stroke="none" d="M 26.14582562299426,-19.71410161513775 L 30.14582562299426,-12.785898384862241 A 50.65152352846903 50.65152352846903 0 0 1 45.94660740465436,-18.668272546143292 L 44.44221356706788,-26.525549376027286 A 58.65152352846903 58.65152352846903 0 0 0 26.14582562299426,-19.71410161513775 Z M 60.359346380580824,-27.36789883867972 L 59.69266170481385,-19.395726515962565 A 50.65152352846903 50.65152352846903 0 0 1 76.02604915201046,-15.213922457340338 L 74.808644797733,-12.472038681870217 L 90.4447125765743,-13.18854717133906 L 80.48986511769445,-25.26749630073079 L 79.27246076341699,-22.52561252526067 A 58.65152352846903 58.65152352846903 0 0 0 60.359346380580824,-27.36789883867972"/><text text-anchor="middle" pointer-events="none" font-size="8px" fill="#000000" x="52.583419475896704" y="-20.49554696488171" font-family="sans-serif">43</text></g><g class="relationship" transform="translate(-34.85176186813666 18.20733335393497) rotate(531.969104208702)"><path class="outline" fill="#FFD86E" stroke="none" d="M 26.14582562299426,-19.71410161513775 L 30.14582562299426,-12.785898384862241 A 52.30399093934823 52.30399093934823 0 0 1 46.69882863084402,-18.904941602192892 L 45.23064353988906,-26.76906472805362 A 60.30399093934823 60.30399093934823 0 0 0 26.14582562299426,-19.71410161513775 Z M 61.11927192925488,-27.600252076062183 L 60.47965245976593,-19.625862636471794 A 52.30399093934823 52.30399093934823 0 0 1 77.58076996991404,-15.267379141315592 L 76.36004387454254,-12.526972638608552 L 91.99696844304225,-13.224532699857967 L 82.0567656529429,-25.31553631790808 L 80.8360395575714,-22.575129815201038 A 60.30399093934823 60.30399093934823 0 0 0 61.11927192925488,-27.600252076062183"/><text text-anchor="middle" pointer-events="none" font-size="8px" fill="#000000" x="53.35639294761213" y="-20.716419041043345" transform="rotate(180 53.35639294761213 -23.716419041043345)" font-family="sans-serif">44</text></g><g class="relationship" transform="translate(-155.34309067161024 35.20754656880629) rotate(466.43423157699334)"><path class="outline" fill="#FFD86E" stroke="none" d="M 26.14582562299426,-19.71410161513775 L 30.14582562299426,-12.785898384862241 A 48.776415704838016 48.776415704838016 0 0 1 45.09611303512518,-18.398900472814447 L 43.54816486322177,-26.247712896175123 A 56.776415704838016 56.776415704838016 0 0 0 26.14582562299426,-19.71410161513775 Z M 59.49969106899159,-27.1031342657653 L 58.80001215732613,-19.133789912522012 A 48.776415704838016 48.776415704838016 0 0 1 74.26484147112635,-15.151838074578494 L 73.05129547493564,-12.408244424795509 L 88.6863398317012,-13.14674829206589 L 78.71451012382556,-25.21168145711611 L 77.50096412763486,-22.468087807333124 A 56.776415704838016 56.776415704838016 0 0 0 59.49969106899159,-27.1031342657653"/><text text-anchor="middle" pointer-events="none" font-size="8px" fill="#000000" x="51.7078902083705" y="-20.244975578777506" transform="rotate(180 51.7078902083705 -23.244975578777506)" font-family="sans-serif">45</text></g><g class="relationship" transform="translate(-188.84260794520813 148.7785813071053) rotate(429.517535873397)"><path class="outline" fill="#FFD86E" stroke="none" d="M 26.14582562299426,-19.71410161513775 L 30.14582562299426,-12.785898384862241 A 50.40813897750206 50.40813897750206 0 0 1 45.83602631625932,-18.633359078132443 L 44.32613224145808,-26.489580808893365 A 58.40813897750206 58.40813897750206 0 0 0 26.14582562299426,-19.71410161513775 Z M 60.247602214101946,-27.33360210203307 L 59.57677692323032,-19.361777127215383 A 50.40813897750206 50.40813897750206 0 0 1 75.79726705787326,-15.205950597362806 L 74.58035810065581,-12.463846917732155 L 90.21629617243956,-13.183180369855615 L 80.25926656767055,-25.26033075600853 L 79.04235761045311,-22.518227076377876 A 58.40813897750206 58.40813897750206 0 0 0 60.247602214101946,-27.33360210203307"/><text text-anchor="middle" pointer-events="none" font-size="8px" fill="#000000" x="52.46968124878318" y="-20.463019755153674" font-family="sans-serif">46</text></g><g class="relationship" transform="translate(-146.87927243364976 261.11942490338583) rotate(407.9194591889511)"><path class="outline" fill="#FFD86E" stroke="none" d="M 26.14582562299426,-19.71410161513775 L 30.14582562299426,-12.785898384862241 A 50.53955883252035 50.53955883252035 0 0 1 45.89572971078897,-18.652213049317297 L 44.388811083341075,-26.509006049661046 A 58.53955883252035 58.53955883252035 0 0 0 26.14582562299426,-19.71410161513775 Z M 60.307934565845976,-27.352123704109346 L 59.63935015910819,-19.380110477134174 A 50.53955883252035 50.53955883252035 0 0 1 75.92079541123073,-15.210258319171066 L 74.70361875720054,-12.46827345544846 L 90.33962698064313,-13.186080418660339 L 80.38377647600807,-25.264202819487288 L 79.16659982197788,-22.52221795576468 A 58.53955883252035 58.53955883252035 0 0 0 60.307934565845976,-27.352123704109346"/><text text-anchor="middle" pointer-events="none" font-size="8px" fill="#000000" x="52.53109270866175" y="-20.480583273671712" font-family="sans-serif">26</text></g><g class="relationship" transform="translate(-66.42852421849952 350.21684467306477) rotate(319.9400171488053)"><path class="outline" fill="#FFD86E" stroke="none" d="M 30.357313173984636,-12.275322270988196 L 32.4278655348048,-4.547915660675651 A 85.39399254232586 85.39399254232586 0 0 1 45.088016122888746,-6.934102091751171 L 44.20350977876549,-14.885054772229509 A 93.39399254232586 93.39399254232586 0 0 0 30.357313173984636,-12.275322270988196 Z M 59.74472019380576,-15.311917579503074 L 59.297987986755864,-7.324400422389459 A 85.39399254232586 85.39399254232586 0 0 1 72.0700327195089,-5.636747631864628 L 71.45380990142085,-2.700718095489422 L 86.59313431337728,-6.675747195953965 L 74.32951638583178,-16.402189265240388 L 73.71329356774373,-13.46615972886518 A 93.39399254232586 93.39399254232586 0 0 0 59.74472019380576,-15.311917579503074"/><text text-anchor="middle" pointer-events="none" font-size="8px" fill="#000000" x="52.07504181717782" y="-8.423944640057385" font-family="sans-serif">27</text></g><g class="relationship" transform="translate(169.02972794354255 407.3692281807188) rotate(324.39631808757383)"><path class="outline" fill="#FF756E" stroke="none" d="M 30.357313173984636,12.275322270988196 L 32.4278655348048,4.547915660675651 A 85.93586663741134 85.93586663741134 0 0 0 45.21584644822346,6.954513979066647 L 44.33576148257136,14.905957272785912 A 93.93586663741134 93.93586663741134 0 0 1 30.357313173984636,12.275322270988196 Z M 59.87320061161452,15.331876993689434 L 59.43004752686212,7.344160464951415 A 85.93586663741134 85.93586663741134 0 0 0 72.33066654695122,5.64175034792431 L 71.71412669833909,2.7057873687514933 L 86.85388024790721,6.67918169329811 L 74.59131265852905,16.40694793822464 L 73.97477280991691,13.470984959051824 A 93.93586663741134 93.93586663741134 0 0 1 59.87320061161452,15.331876993689434"/><text text-anchor="middle" pointer-events="none" font-size="8px" fill="#000000" x="52.20526520956269" y="14.442337457087518" font-family="sans-serif">48</text></g><g class="relationship" transform="translate(265.50794379581555 338.2882316589726) rotate(245.2137598521316)"><path class="outline" fill="#FF756E" stroke="none" d="M 30.357313173984636,12.275322270988196 L 32.4278655348048,4.547915660675651 A 90.11353310336315 90.11353310336315 0 0 0 46.203613232952506,7.1112710409667415 L 45.35602903007563,15.06624439221271 A 98.11353310336315 98.11353310336315 0 0 1 30.357313173984636,12.275322270988196 Z M 60.86581210373095,15.485045681384094 L 60.44875665227467,7.495924030638591 A 90.11353310336315 90.11353310336315 0 0 0 74.34276299010922,5.679718278829912 L 73.72381714835583,2.7442615775692394 L 88.86682205166355,6.70524661899501 L 76.61223107653831,16.443059516785713 L 75.99328523478492,13.50760281552504 A 98.11353310336315 98.11353310336315 0 0 1 60.86581210373095,15.485045681384094"/><text text-anchor="middle" pointer-events="none" font-size="8px" fill="#000000" x="53.21059928470822" y="14.584168123550498" transform="rotate(180 53.21059928470822 11.584168123550498)" font-family="sans-serif">65</text></g><g class="relationship" transform="translate(382.32325124608036 95.2968832044641) rotate(212.28904267482693)"><path class="outline" fill="#FF756E" stroke="none" d="M 30.357313173984636,12.275322270988196 L 32.4278655348048,4.547915660675651 A 90.7278894510633 90.7278894510633 0 0 0 48.47044554317197,7.33386514562271 L 47.81445975987769,15.306924950497859 A 98.7278894510633 98.7278894510633 0 0 1 30.357313173984636,12.275322270988196 Z M 58.69544023199,15.600091652448128 L 58.46973144791438,7.603276314778313 A 90.7278894510633 90.7278894510633 0 0 0 74.63905185531532,5.685213380371858 L 74.01975780840415,2.7498301203084647 L 89.16323246482602,6.709018841537615 L 76.90979669398958,16.448285333937633 L 76.29050264707841,13.512902073874239 A 98.7278894510633 98.7278894510633 0 0 1 58.69544023199,15.600091652448128"/><text text-anchor="middle" pointer-events="none" font-size="8px" fill="#000000" x="53.35863971914055" y="14.605029446728167" transform="rotate(180 53.35863971914055 11.605029446728167)" font-family="sans-serif">7</text></g><g class="relationship" transform="translate(280.0653006343356 30.679458364836304) rotate(296.514080318445)"><path class="outline" fill="#68BDF6" stroke="none" d="M 32.5 4 L 43.13582034939557 4 L 43.13582034939557 -4 L 32.5 -4 Z M 62.48347659939557 4 L 73.11929694879115 4 L 73.11929694879115 7 L 87.11929694879115 0 L 73.11929694879115 -7 L 73.11929694879115 -4 L 62.48347659939557 -4 Z"/><text text-anchor="middle" pointer-events="none" font-size="8px" fill="#000000" x="52.80964847439557" y="3" font-family="sans-serif">101</text></g><g class="relationship" transform="translate(280.0653006343356 30.679458364836304) rotate(296.514080318445)"><path class="outline" fill="#FF756E" stroke="none" d="M 26.14582562299426,19.71410161513775 L 30.14582562299426,12.785898384862241 A 50.08164586655985 50.08164586655985 0 0 0 47.717915358522745,18.935524946390764 L 46.524866197534465,26.84606435274386 A 58.08164586655985 58.08164586655985 0 0 1 26.14582562299426,19.71410161513775 Z M 57.71370254516245,27.440566272848827 L 57.3656333468902,19.44814187012757 A 50.08164586655985 50.08164586655985 0 0 0 75.4904469754416,15.195216353497786 L 74.27420509274074,12.452816732223694 L 89.90996771832182,13.175953729259254 L 79.95000054534472,25.250681631502786 L 78.73375866264387,22.508282010228697 A 58.08164586655985 58.08164586655985 0 0 1 57.71370254516245,27.440566272848827"/><text text-anchor="middle" pointer-events="none" font-size="8px" fill="#000000" x="52.31714966968373" y="26.419387151963768" font-family="sans-serif">8</text></g><g class="relationship" transform="translate(333.4654753899005 -76.3588410358838) rotate(205.81287509490824)"><path class="outline" fill="#FF756E" stroke="none" d="M 30.357313173984636,12.275322270988196 L 32.4278655348048,4.547915660675651 A 84.1996950133552 84.1996950133552 0 0 0 46.91969609940248,7.099846784312149 L 46.22604474158942,15.069718037588714 A 92.1996950133552 92.1996950133552 0 0 1 30.357313173984636,12.275322270988196 Z M 57.13861420947031,15.370755320551794 L 56.885401743814086,7.374763609248163 A 84.1996950133552 84.1996950133552 0 0 0 71.49588196776416,5.625657209295417 L 70.88036197916067,2.6894802487513907 L 86.0187344351076,6.668133209871157 L 73.75278859264363,16.391639397956848 L 73.13726860404013,13.455462437412821 A 92.1996950133552 92.1996950133552 0 0 1 57.13861420947031,15.370755320551794"/><text text-anchor="middle" pointer-events="none" font-size="8px" fill="#000000" x="51.78817328891744" y="14.383409708774195" transform="rotate(180 51.78817328891744 11.383409708774195)" font-family="sans-serif">9</text></g><g class="relationship" transform="translate(227.39485547895742 -127.66479098190965) rotate(208.25299193189085)"><path class="outline" fill="#FF756E" stroke="none" d="M 30.357313173984636,12.275322270988196 L 32.4278655348048,4.547915660675651 A 80.77955695642311 80.77955695642311 0 0 0 44.0023233840241,6.759468928024461 L 43.078046965812845,14.70589662245034 A 88.77955695642311 88.77955695642311 0 0 1 30.357313173984636,12.275322270988196 Z M 58.65326755224247,15.14098509669104 L 58.174047839552806,7.15535121659299 A 80.77955695642311 80.77955695642311 0 0 0 69.85391725915437,5.5933996492484015 L 69.24044160201522,2.656794871942184 L 84.37604042943558,6.645986285674029 L 72.1033280019979,16.3609504993712 L 71.48985234485875,13.424345722064981 A 88.77955695642311 88.77955695642311 0 0 1 58.65326755224247,15.14098509669104"/><text text-anchor="middle" pointer-events="none" font-size="8px" fill="#000000" x="50.967788826124504" y="14.267353004917041" transform="rotate(180 50.967788826124504 11.267353004917041)" font-family="sans-serif">68</text></g><g class="relationship" transform="translate(125.04768538802244 -182.6647968596211) rotate(180.40297522143544)"><path class="outline" fill="#68BDF6" stroke="none" d="M 32.5 4 L 44.28627511177151 4 L 44.28627511177151 -4 L 32.5 -4 Z M 59.18471261177151 4 L 70.97098772354302 4 L 70.97098772354302 7 L 84.97098772354302 0 L 70.97098772354302 -7 L 70.97098772354302 -4 L 59.18471261177151 -4 Z"/><text text-anchor="middle" pointer-events="none" font-size="8px" fill="#000000" x="51.73549386177151" y="3" transform="rotate(180 51.73549386177151 0)" font-family="sans-serif">90</text></g><g class="relationship" transform="translate(125.04768538802244 -182.6647968596211) rotate(180.40297522143544)"><path class="outline" fill="#FF756E" stroke="none" d="M 26.14582562299426,19.71410161513775 L 30.14582562299426,12.785898384862241 A 47.764245811909774 47.764245811909774 0 0 0 44.63845981611084,18.253109218646905 L 43.06582094312404,26.097011753429626 A 55.764245811909774 55.764245811909774 0 0 1 26.14582562299426,19.71410161513775 Z M 59.036891896969344,26.959677754877703 L 58.318303375583774,18.992016207288415 A 47.764245811909774 47.764245811909774 0 0 0 73.31551465645092,15.11767833436415 L 72.10409181497316,12.373146552958444 L 87.73856009164787,13.123747449342268 L 77.75739840853599,25.18096153285174 L 76.54597556705824,22.436429751446035 A 55.764245811909774 55.764245811909774 0 0 1 59.036891896969344,26.959677754877703"/><text text-anchor="middle" pointer-events="none" font-size="8px" fill="#000000" x="51.23600956255984" y="26.109746552789936" transform="rotate(180 51.23600956255984 23.109746552789936)" font-family="sans-serif">69</text></g><g class="relationship" transform="translate(7.57960309339812 -183.49099221676306) rotate(491.96326475275816)"><path class="outline" fill="#68BDF6" stroke="none" d="M 32.5 4 L 44.0597824379748 4 L 44.0597824379748 -4 L 32.5 -4 Z M 58.9582199379748 4 L 70.5180023759496 4 L 70.5180023759496 7 L 84.5180023759496 0 L 70.5180023759496 -7 L 70.5180023759496 -4 L 58.9582199379748 -4 Z"/><text text-anchor="middle" pointer-events="none" font-size="8px" fill="#000000" x="51.5090011879748" y="3" transform="rotate(180 51.5090011879748 0)" font-family="sans-serif">77</text></g><g class="relationship" transform="translate(7.57960309339812 -183.49099221676306) rotate(491.96326475275816)"><path class="outline" fill="#FF756E" stroke="none" d="M 26.14582562299426,19.71410161513775 L 30.14582562299426,12.785898384862241 A 47.2748139515473 47.2748139515473 0 0 0 44.417540385897055,18.18250999695794 L 42.83264704755925,26.023945650337524 A 55.2748139515473 55.2748139515473 0 0 1 26.14582562299426,19.71410161513775 Z M 58.81343029470054,26.89016401925508 L 58.085402849818756,18.92335938756623 A 47.2748139515473 47.2748139515473 0 0 0 72.85682070624105,15.100994455167443 L 71.64643488894168,12.356005170437804 L 87.2806184580452,13.112513020743215 L 77.29490203633875,25.16595516584278 L 76.08451621903939,22.420965881113144 A 55.2748139515473 55.2748139515473 0 0 1 58.81343029470054,26.89016401925508"/><text text-anchor="middle" pointer-events="none" font-size="8px" fill="#000000" x="51.00801930005321" y="26.044364176391596" transform="rotate(180 51.00801930005321 23.044364176391596)" font-family="sans-serif">70</text></g><g class="relationship" transform="translate(-70.66495236094919 -96.47948480648246) rotate(432.6580100762106)"><path class="outline" fill="#68BDF6" stroke="none" d="M 32.5 4 L 45.62500798875031 4 L 45.62500798875031 -4 L 32.5 -4 Z M 60.52344548875031 4 L 73.64845347750062 4 L 73.64845347750062 7 L 87.64845347750062 0 L 73.64845347750062 -7 L 73.64845347750062 -4 L 60.52344548875031 -4 Z"/><text text-anchor="middle" pointer-events="none" font-size="8px" fill="#000000" x="53.07422673875031" y="3" font-family="sans-serif">78</text></g><g class="relationship" transform="translate(-70.66495236094919 -96.47948480648246) rotate(432.6580100762106)"><path class="outline" fill="#FF756E" stroke="none" d="M 26.14582562299426,19.71410161513775 L 30.14582562299426,12.785898384862241 A 50.65152352846903 50.65152352846903 0 0 0 45.94660740465436,18.668272546143292 L 44.44221356706788,26.525549376027286 A 58.65152352846903 58.65152352846903 0 0 1 26.14582562299426,19.71410161513775 Z M 60.359346380580845,27.36789883867972 L 59.692661704813865,19.395726515962565 A 50.65152352846903 50.65152352846903 0 0 0 76.02604915201046,15.213922457340338 L 74.808644797733,12.472038681870217 L 90.4447125765743,13.18854717133906 L 80.48986511769445,25.26749630073079 L 79.27246076341699,22.52561252526067 A 58.65152352846903 58.65152352846903 0 0 1 60.359346380580845,27.36789883867972"/><text text-anchor="middle" pointer-events="none" font-size="8px" fill="#000000" x="52.58341947589672" y="26.49554696488171" font-family="sans-serif">10</text></g><g class="relationship" transform="translate(-34.85176186813666 18.20733335393497) rotate(531.969104208702)"><path class="outline" fill="#68BDF6" stroke="none" d="M 32.5 4 L 46.39313402785095 4 L 46.39313402785095 -4 L 32.5 -4 Z M 61.29157152785095 4 L 75.1847055557019 4 L 75.1847055557019 7 L 89.1847055557019 0 L 75.1847055557019 -7 L 75.1847055557019 -4 L 61.29157152785095 -4 Z"/><text text-anchor="middle" pointer-events="none" font-size="8px" fill="#000000" x="53.84235277785095" y="3" transform="rotate(180 53.84235277785095 0)" font-family="sans-serif">91</text></g><g class="relationship" transform="translate(-34.85176186813666 18.20733335393497) rotate(531.969104208702)"><path class="outline" fill="#FF756E" stroke="none" d="M 26.14582562299426,19.71410161513775 L 30.14582562299426,12.785898384862241 A 52.30399093934823 52.30399093934823 0 0 0 46.97006085475695,18.954839421439992 L 45.543361274799025,26.82659451852907 A 60.30399093934823 60.30399093934823 0 0 1 26.14582562299426,19.71410161513775 Z M 60.802258419360285,27.624838516709048 L 60.20469434354682,19.647187410318317 A 52.30399093934823 52.30399093934823 0 0 0 77.58076996991404,15.267379141315592 L 76.36004387454254,12.526972638608552 L 91.99696844304225,13.224532699857967 L 82.0567656529429,25.31553631790808 L 80.8360395575714,22.575129815201038 A 60.30399093934823 60.30399093934823 0 0 1 60.802258419360285,27.624838516709048"/><text text-anchor="middle" pointer-events="none" font-size="8px" fill="#000000" x="53.35639294761213" y="26.716419041043345" transform="rotate(180 53.35639294761213 23.716419041043345)" font-family="sans-serif">11</text></g><g class="relationship" transform="translate(-155.34309067161024 35.20754656880629) rotate(466.43423157699334)"><path class="outline" fill="#FF756E" stroke="none" d="M 32.5 4 L 44.755083435508446 4 L 44.755083435508446 -4 L 32.5 -4 Z M 59.653520935508446 4 L 71.90860437101689 4 L 71.90860437101689 7 L 85.90860437101689 0 L 71.90860437101689 -7 L 71.90860437101689 -4 L 59.653520935508446 -4 Z"/><text text-anchor="middle" pointer-events="none" font-size="8px" fill="#000000" x="52.204302185508446" y="3" transform="rotate(180 52.204302185508446 0)" font-family="sans-serif">29</text></g><g class="relationship" transform="translate(-155.34309067161024 35.20754656880629) rotate(466.43423157699334)"><path class="outline" fill="#68BDF6" stroke="none" d="M 26.14582562299426,19.71410161513775 L 30.14582562299426,12.785898384862241 A 48.776415704838016 48.776415704838016 0 0 0 45.096113035125185,18.398900472814447 L 43.54816486322178,26.247712896175123 A 56.776415704838016 56.776415704838016 0 0 1 26.14582562299426,19.71410161513775 Z M 59.49969106899159,27.1031342657653 L 58.80001215732613,19.133789912522012 A 48.776415704838016 48.776415704838016 0 0 0 74.26484147112635,15.151838074578494 L 73.05129547493564,12.408244424795509 L 88.6863398317012,13.14674829206589 L 78.71451012382556,25.21168145711611 L 77.50096412763486,22.468087807333124 A 56.776415704838016 56.776415704838016 0 0 1 59.49969106899159,27.1031342657653"/><text text-anchor="middle" pointer-events="none" font-size="8px" fill="#000000" x="51.70789020837051" y="26.244975578777506" transform="rotate(180 51.70789020837051 23.244975578777506)" font-family="sans-serif">79</text></g><g class="relationship" transform="translate(-188.84260794520813 148.7785813071053) rotate(429.517535873397)"><path class="outline" fill="#68BDF6" stroke="none" d="M 32.5 4 L 43.28738155921914 4 L 43.28738155921914 -4 L 32.5 -4 Z M 62.63503780921914 4 L 73.42241936843828 4 L 73.42241936843828 7 L 87.42241936843828 0 L 73.42241936843828 -7 L 73.42241936843828 -4 L 62.63503780921914 -4 Z"/><text text-anchor="middle" pointer-events="none" font-size="8px" fill="#000000" x="52.96120968421914" y="3" font-family="sans-serif">120</text></g><g class="relationship" transform="translate(-188.84260794520813 148.7785813071053) rotate(429.517535873397)"><path class="outline" fill="#FF756E" stroke="none" d="M 26.14582562299426,19.71410161513775 L 30.14582562299426,12.785898384862241 A 50.40813897750206 50.40813897750206 0 0 0 45.83602631625934,18.633359078132443 L 44.326132241458104,26.489580808893365 A 58.40813897750206 58.40813897750206 0 0 1 26.14582562299426,19.71410161513775 Z M 60.247602214101974,27.333602102033062 L 59.57677692323034,19.361777127215376 A 50.40813897750206 50.40813897750206 0 0 0 75.79726705787326,15.205950597362806 L 74.58035810065581,12.463846917732155 L 90.21629617243956,13.183180369855615 L 80.25926656767055,25.26033075600853 L 79.04235761045311,22.518227076377876 A 58.40813897750206 58.40813897750206 0 0 1 60.247602214101974,27.333602102033062"/><text text-anchor="middle" pointer-events="none" font-size="8px" fill="#000000" x="52.4696812487832" y="26.463019755153674" font-family="sans-serif">12</text></g><g class="relationship" transform="translate(-146.87927243364976 261.11942490338583) rotate(407.9194591889511)"><path class="outline" fill="#68BDF6" stroke="none" d="M 32.5 4 L 43.348403377152344 4 L 43.348403377152344 -4 L 32.5 -4 Z M 62.696059627152344 4 L 73.54446300430469 4 L 73.54446300430469 7 L 87.54446300430469 0 L 73.54446300430469 -7 L 73.54446300430469 -4 L 62.696059627152344 -4 Z"/><text text-anchor="middle" pointer-events="none" font-size="8px" fill="#000000" x="53.022231502152344" y="3" font-family="sans-serif">121</text></g><g class="relationship" transform="translate(-146.87927243364976 261.11942490338583) rotate(407.9194591889511)"><path class="outline" fill="#FF756E" stroke="none" d="M 26.14582562299426,19.71410161513775 L 30.14582562299426,12.785898384862241 A 50.53955883252035 50.53955883252035 0 0 0 45.89572971078896,18.652213049317297 L 44.38881108334107,26.509006049661046 A 58.53955883252035 58.53955883252035 0 0 1 26.14582562299426,19.71410161513775 Z M 60.307934565845954,27.352123704109346 L 59.63935015910817,19.380110477134174 A 50.53955883252035 50.53955883252035 0 0 0 75.92079541123073,15.210258319171066 L 74.70361875720054,12.46827345544846 L 90.33962698064313,13.186080418660339 L 80.38377647600807,25.264202819487288 L 79.16659982197788,22.52221795576468 A 58.53955883252035 58.53955883252035 0 0 1 60.307934565845954,27.352123704109346"/><text text-anchor="middle" pointer-events="none" font-size="8px" fill="#000000" x="52.53109270866174" y="26.480583273671712" font-family="sans-serif">13</text></g><g class="relationship" transform="translate(-66.42852421849952 350.21684467306477) rotate(319.9400171488053)"><path class="outline" fill="#FF756E" stroke="none" d="M 30.357313173984636,12.275322270988196 L 32.4278655348048,4.547915660675651 A 85.39399254232586 85.39399254232586 0 0 0 45.08801612288879,6.934102091751171 L 44.203509778765536,14.885054772229509 A 93.39399254232586 93.39399254232586 0 0 1 30.357313173984636,12.275322270988196 Z M 59.744720193805776,15.311917579503074 L 59.29798798675587,7.324400422389459 A 85.39399254232586 85.39399254232586 0 0 0 72.0700327195089,5.636747631864628 L 71.45380990142085,2.700718095489422 L 86.59313431337728,6.675747195953965 L 74.32951638583178,16.402189265240388 L 73.71329356774373,13.46615972886518 A 93.39399254232586 93.39399254232586 0 0 1 59.744720193805776,15.311917579503074"/><text text-anchor="middle" pointer-events="none" font-size="8px" fill="#000000" x="52.07504181717785" y="14.423944640057385" font-family="sans-serif">14</text></g></g><g class="layer nodes"><g class="node" transform="translate(169.02972794354255,407.3692281807188)"><circle class="outline" cx="0" cy="0" r="32.5" fill="#68BDF6" stroke="#5CA8DB" stroke-width="2px"/><text text-anchor="middle" pointer-events="none" font-family="sans-serif" dy="2.03125" font-size="32.5" fill="#FFFFFF"/><text text-anchor="middle" pointer-events="none" y="5" font-size="10px" fill="#FFFFFF" font-family="sans-serif"> 新宿</text></g><g class="node" transform="translate(265.50794379581555,338.2882316589726)"><circle class="outline" cx="0" cy="0" r="32.5" fill="#68BDF6" stroke="#5CA8DB" stroke-width="2px"/><text text-anchor="middle" pointer-events="none" font-family="sans-serif" dy="2.03125" font-size="32.5" fill="#FFFFFF"/><text text-anchor="middle" pointer-events="none" y="5" font-size="10px" fill="#FFFFFF" font-family="sans-serif"> 代々木上原</text></g><g class="node" transform="translate(214.91997428871576,228.7367471844695)"><circle class="outline" cx="0" cy="0" r="32.5" fill="#68BDF6" stroke="#5CA8DB" stroke-width="2px"/><text text-anchor="middle" pointer-events="none" font-family="sans-serif" dy="2.03125" font-size="32.5" fill="#FFFFFF"/><text text-anchor="middle" pointer-events="none" y="5" font-size="10px" fill="#FFFFFF" font-family="sans-serif"> 下北沢</text></g><g class="node" transform="translate(333.78292136955156,203.17582313780923)"><circle class="outline" cx="0" cy="0" r="32.5" fill="#68BDF6" stroke="#5CA8DB" stroke-width="2px"/><text text-anchor="middle" pointer-events="none" font-family="sans-serif" dy="2.03125" font-size="32.5" fill="#FFFFFF"/><text text-anchor="middle" pointer-events="none" y="5" font-size="10px" fill="#FFFFFF" font-family="sans-serif"> 登戸</text></g><g class="node" transform="translate(382.32325124608036,95.2968832044641)"><circle class="outline" cx="0" cy="0" r="32.5" fill="#68BDF6" stroke="#5CA8DB" stroke-width="2px"/><text text-anchor="middle" pointer-events="none" font-family="sans-serif" dy="2.03125" font-size="32.5" fill="#FFFFFF"/><text text-anchor="middle" pointer-events="none" y="5" font-size="10px" fill="#FFFFFF" font-family="sans-serif"> 新百合ヶ丘</text></g><g class="node" transform="translate(280.0653006343356,30.679458364836304)"><circle class="outline" cx="0" cy="0" r="32.5" fill="#68BDF6" stroke="#5CA8DB" stroke-width="2px"/><text text-anchor="middle" pointer-events="none" font-family="sans-serif" dy="2.03125" font-size="32.5" fill="#FFFFFF"/><text text-anchor="middle" pointer-events="none" y="5" font-size="10px" fill="#FFFFFF" font-family="sans-serif"> 町田</text></g><g class="node" transform="translate(333.4654753899005,-76.3588410358838)"><circle class="outline" cx="0" cy="0" r="32.5" fill="#68BDF6" stroke="#5CA8DB" stroke-width="2px"/><text text-anchor="middle" pointer-events="none" font-family="sans-serif" dy="2.03125" font-size="32.5" fill="#FFFFFF"/><text text-anchor="middle" pointer-events="none" y="5" font-size="10px" fill="#FFFFFF" font-family="sans-serif"> 相模大野</text></g><g class="node" transform="translate(227.39485547895742,-127.66479098190965)"><circle class="outline" cx="0" cy="0" r="32.5" fill="#68BDF6" stroke="#5CA8DB" stroke-width="2px"/><text text-anchor="middle" pointer-events="none" font-family="sans-serif" dy="2.03125" font-size="32.5" fill="#FFFFFF"/><text text-anchor="middle" pointer-events="none" y="5" font-size="10px" fill="#FFFFFF" font-family="sans-serif"> 海老名</text></g><g class="node" transform="translate(125.04768538802244,-182.6647968596211)"><circle class="outline" cx="0" cy="0" r="32.5" fill="#68BDF6" stroke="#5CA8DB" stroke-width="2px"/><text text-anchor="middle" pointer-events="none" font-family="sans-serif" dy="2.03125" font-size="32.5" fill="#FFFFFF"/><text text-anchor="middle" pointer-events="none" y="5" font-size="10px" fill="#FFFFFF" font-family="sans-serif"> 本厚木</text></g><g class="node" transform="translate(7.57960309339812,-183.49099221676306)"><circle class="outline" cx="0" cy="0" r="32.5" fill="#68BDF6" stroke="#5CA8DB" stroke-width="2px"/><text text-anchor="middle" pointer-events="none" font-family="sans-serif" dy="2.03125" font-size="32.5" fill="#FFFFFF"/><text text-anchor="middle" pointer-events="none" y="5" font-size="10px" fill="#FFFFFF" font-family="sans-serif"> 愛甲石田</text></g><g class="node" transform="translate(-70.66495236094919,-96.47948480648246)"><circle class="outline" cx="0" cy="0" r="32.5" fill="#68BDF6" stroke="#5CA8DB" stroke-width="2px"/><text text-anchor="middle" pointer-events="none" font-family="sans-serif" dy="2.03125" font-size="32.5" fill="#FFFFFF"/><text text-anchor="middle" pointer-events="none" y="5" font-size="10px" fill="#FFFFFF" font-family="sans-serif"> 伊勢原</text></g><g class="node" transform="translate(-34.85176186813666,18.20733335393497)"><circle class="outline" cx="0" cy="0" r="32.5" fill="#68BDF6" stroke="#5CA8DB" stroke-width="2px"/><text text-anchor="middle" pointer-events="none" font-family="sans-serif" dy="2.03125" font-size="32.5" fill="#FFFFFF"/><text text-anchor="middle" pointer-events="none" y="5" font-size="10px" fill="#FFFFFF" font-family="sans-serif"> 鶴巻温泉</text></g><g class="node" transform="translate(-155.34309067161024,35.20754656880629)"><circle class="outline" cx="0" cy="0" r="32.5" fill="#68BDF6" stroke="#5CA8DB" stroke-width="2px"/><text text-anchor="middle" pointer-events="none" font-family="sans-serif" dy="2.03125" font-size="32.5" fill="#FFFFFF"/><text text-anchor="middle" pointer-events="none" y="5" font-size="10px" fill="#FFFFFF" font-family="sans-serif"> 東海大学前</text></g><g class="node" transform="translate(-188.84260794520813,148.7785813071053)"><circle class="outline" cx="0" cy="0" r="32.5" fill="#68BDF6" stroke="#5CA8DB" stroke-width="2px"/><text text-anchor="middle" pointer-events="none" font-family="sans-serif" dy="2.03125" font-size="32.5" fill="#FFFFFF"/><text text-anchor="middle" pointer-events="none" y="5" font-size="10px" fill="#FFFFFF" font-family="sans-serif"> 秦野</text></g><g class="node" transform="translate(-146.87927243364976,261.11942490338583)"><circle class="outline" cx="0" cy="0" r="32.5" fill="#68BDF6" stroke="#5CA8DB" stroke-width="2px"/><text text-anchor="middle" pointer-events="none" font-family="sans-serif" dy="2.03125" font-size="32.5" fill="#FFFFFF"/><text text-anchor="middle" pointer-events="none" y="5" font-size="10px" fill="#FFFFFF" font-family="sans-serif"> 渋沢</text></g><g class="node" transform="translate(-66.42852421849952,350.21684467306477)"><circle class="outline" cx="0" cy="0" r="32.5" fill="#68BDF6" stroke="#5CA8DB" stroke-width="2px"/><text text-anchor="middle" pointer-events="none" font-family="sans-serif" dy="2.03125" font-size="32.5" fill="#FFFFFF"/><text text-anchor="middle" pointer-events="none" y="5" font-size="10px" fill="#FFFFFF" font-family="sans-serif"> 新松田</text></g><g class="node" transform="translate(24.191505441904066,274.01580224525753)"><circle class="outline" cx="0" cy="0" r="32.5" fill="#68BDF6" stroke="#5CA8DB" stroke-width="2px"/><text text-anchor="middle" pointer-events="none" font-family="sans-serif" dy="2.03125" font-size="32.5" fill="#FFFFFF"/><text text-anchor="middle" pointer-events="none" y="5" font-size="10px" fill="#FFFFFF" font-family="sans-serif"> 小田原</text></g></g></svg>